<?xml version="1.0" standalone="no"?>
<!DOCTYPE svg PUBLIC "-//W3C//DTD SVG 20010904//EN"
 "http://www.w3.org/TR/2001/REC-SVG-20010904/DTD/svg10.dtd">
<svg version="1.0" xmlns="http://www.w3.org/2000/svg"
 width="512.000000pt" height="512.000000pt" viewBox="0 0 512.000000 512.000000"
 preserveAspectRatio="xMidYMid meet">
<metadata>
Created by potrace 1.14, written by Peter Selinger 2001-2017
</metadata>
<g transform="translate(0.000000,512.000000) scale(0.100000,-0.100000)"
fill="#000000" stroke="none">
<path d="M3396 4713 c-6 -14 -5 -15 5 -6 7 7 10 15 7 18 -3 3 -9 -2 -12 -12z"/>
<path d="M3440 4722 c0 -5 -20 -19 -45 -32 -43 -22 -62 -39 -30 -26 8 3 15 1
15 -4 0 -9 -14 -14 -32 -11 -12 2 -9 -14 5 -28 10 -10 8 -11 -7 -5 -17 6 -17
5 -6 -17 l13 -24 -23 20 -23 20 12 -22 c7 -13 8 -23 2 -23 -5 0 -12 6 -14 13
-3 7 -6 4 -6 -6 -1 -10 -5 -16 -10 -12 -5 3 -13 0 -17 -6 -4 -7 -3 -9 4 -5 6
3 13 2 17 -4 3 -5 1 -10 -5 -10 -6 0 -9 -4 -6 -9 4 -5 -4 -7 -16 -4 -22 5 -22
5 -3 -10 18 -14 18 -15 -6 -12 -29 3 -36 -22 -12 -40 12 -9 10 -11 -6 -11 -12
0 -21 5 -21 10 0 5 -2 7 -5 4 -3 -3 -1 -18 5 -33 9 -24 9 -26 -4 -16 -11 9
-16 9 -22 0 -4 -7 -3 -9 4 -5 6 4 10 -1 9 -13 -1 -15 -4 -17 -14 -9 -11 8 -12
7 -7 -7 6 -14 4 -16 -6 -10 -9 5 -11 4 -6 -4 4 -6 11 -9 16 -6 5 3 11 1 14 -4
4 -5 -5 -8 -18 -7 -19 2 -23 -1 -21 -16 2 -10 6 -22 10 -27 3 -5 1 -12 -5 -16
-6 -4 -8 -11 -5 -16 8 -12 -8 -12 -23 1 -8 7 -9 7 -3 -1 11 -13 -7 -59 -22
-59 -6 0 -7 -3 -4 -6 4 -4 13 -1 22 6 9 8 15 8 15 2 0 -6 -5 -14 -11 -18 -6
-3 -9 -17 -6 -30 2 -13 0 -21 -5 -18 -5 3 -6 -6 -4 -21 4 -21 1 -28 -14 -32
-17 -5 -18 -7 -4 -20 9 -10 11 -19 6 -27 -5 -6 -13 -22 -17 -35 -6 -18 -4 -22
6 -15 12 7 12 5 1 -9 -8 -9 -10 -22 -6 -29 6 -11 5 -11 -8 0 -11 9 -18 10 -23
2 -3 -5 1 -13 9 -16 9 -3 16 -10 16 -16 0 -5 -5 -6 -12 -2 -8 5 -9 2 -5 -9 3
-9 1 -19 -5 -23 -7 -5 -8 -2 -3 7 5 8 4 11 0 6 -11 -9 -14 -47 -4 -47 4 0 9 3
12 8 2 4 2 2 1 -5 -2 -6 2 -14 9 -17 7 -4 -1 -4 -17 0 l-30 5 25 -21 c13 -12
19 -19 12 -16 -6 4 -14 2 -18 -4 -3 -5 -1 -10 4 -10 6 0 11 -7 11 -15 0 -8 -5
-15 -11 -15 -5 0 -7 4 -4 10 4 6 -1 7 -11 3 -16 -6 -16 -8 3 -16 15 -6 21 -18
21 -37 -1 -15 3 -33 8 -41 15 -24 13 -38 -4 -32 -10 3 -7 -4 8 -16 14 -12 18
-19 9 -15 -19 6 -35 -11 -19 -21 5 -3 10 -11 10 -16 0 -6 -4 -7 -10 -4 -16 10
-12 -2 7 -21 14 -14 15 -18 4 -22 -10 -3 -7 -9 10 -19 13 -8 16 -12 7 -9 -9 2
-19 -1 -21 -8 -4 -10 4 -12 26 -10 18 2 28 0 22 -4 -5 -4 -17 -15 -24 -25 -13
-16 -13 -18 0 -15 7 1 14 -2 14 -7 0 -6 -3 -9 -7 -8 -3 1 -8 -4 -11 -11 -4 -9
0 -12 13 -9 10 3 21 0 24 -6 5 -7 1 -8 -11 -4 -15 6 -16 4 -6 -8 14 -18 11
-48 -6 -58 -10 -6 -9 -10 4 -15 15 -5 15 -9 4 -23 -8 -9 -9 -14 -3 -10 7 4 11
-7 12 -29 1 -23 9 -42 24 -55 13 -11 17 -18 11 -14 -7 3 -13 2 -13 -4 0 -5 5
-12 10 -14 6 -3 5 -4 -2 -3 -7 2 -12 11 -12 20 1 9 -2 16 -6 16 -4 0 -8 -16
-7 -35 1 -21 4 -30 9 -22 6 9 8 8 8 -3 0 -9 -4 -21 -10 -28 -7 -9 -7 -9 2 -2
7 6 15 10 19 10 9 0 5 -27 -6 -37 -4 -4 -5 -1 -1 7 4 8 0 6 -8 -4 -9 -11 -16
-25 -15 -30 0 -6 3 -5 6 2 5 14 39 16 47 3 4 -5 -2 -7 -12 -4 -13 3 -18 -2
-20 -21 -1 -14 3 -26 8 -26 11 0 9 -28 -3 -48 -5 -7 -13 -10 -18 -7 -5 4 -6
-2 -2 -11 4 -11 8 -13 11 -6 2 7 11 12 20 11 11 0 12 -2 5 -6 -7 -2 -13 -9
-13 -14 0 -6 6 -7 13 -3 8 5 8 2 -2 -9 -11 -14 -11 -20 0 -34 10 -12 11 -15 1
-9 -9 6 -11 1 -8 -18 3 -15 1 -24 -5 -21 -5 4 -6 12 -2 18 4 7 -2 5 -13 -3
-29 -22 -30 -24 -14 -18 10 4 20 -3 27 -19 10 -21 10 -23 -3 -13 -8 7 -14 9
-14 5 0 -4 -6 -4 -13 1 -7 5 -5 2 5 -8 22 -20 23 -30 4 -26 -8 2 -14 -1 -13
-7 1 -5 6 -9 10 -7 5 1 6 -2 2 -8 -3 -5 0 -10 7 -10 8 0 6 -5 -5 -11 -14 -8
-17 -19 -13 -45 3 -19 2 -34 -3 -34 -6 0 -8 9 -6 20 2 11 -1 23 -7 26 -7 4 -8
2 -4 -4 4 -7 1 -12 -6 -12 -9 0 -9 -3 2 -10 8 -5 11 -10 6 -10 -5 0 -3 -7 4
-15 17 -21 1 -19 -24 3 -21 17 -21 17 -3 -4 9 -11 14 -24 10 -29 -5 -4 -3 -5
3 -2 6 3 11 0 11 -8 0 -8 -7 -17 -14 -19 -9 -4 -12 -1 -7 7 5 9 3 8 -7 -1 -12
-11 -12 -14 0 -21 11 -7 10 -13 -3 -33 -9 -14 -13 -29 -9 -34 4 -5 1 -3 -6 3
-12 11 -12 15 3 32 15 17 15 19 1 25 -10 3 -14 2 -10 -5 4 -6 -1 -19 -11 -30
-10 -11 -12 -19 -6 -19 16 0 15 -19 -3 -36 -8 -8 -11 -22 -8 -31 4 -10 2 -14
-4 -10 -5 3 -10 0 -10 -8 0 -8 4 -12 8 -9 4 2 11 -1 15 -7 4 -7 3 -9 -3 -6 -6
4 -19 -1 -29 -9 -16 -13 -16 -15 -2 -10 10 3 19 2 22 -2 3 -4 -5 -9 -16 -9
-12 -1 -26 -7 -32 -14 -8 -9 -7 -10 6 -6 10 3 20 2 23 -4 4 -5 1 -8 -7 -7 -7
2 -12 -3 -10 -11 3 -12 0 -12 -13 -1 -8 7 -18 10 -22 6 -3 -3 -2 -6 4 -6 6 0
14 -7 17 -16 3 -8 2 -13 -2 -10 -4 2 -16 -3 -27 -11 -19 -15 -19 -15 4 -8 21
6 22 5 10 -8 -8 -8 -18 -12 -23 -9 -5 3 -6 -1 -1 -8 6 -10 4 -12 -11 -6 -15 6
-17 5 -6 -5 13 -14 17 -33 4 -25 -4 2 -14 0 -22 -5 -12 -8 -11 -9 4 -7 10 2
21 -3 24 -11 3 -8 0 -11 -7 -7 -6 4 -16 4 -23 0 -7 -5 -5 -12 8 -22 18 -14 18
-14 -3 -8 -18 6 -21 4 -16 -15 4 -13 2 -20 -3 -16 -6 3 -15 -3 -22 -13 -7 -13
-8 -21 -2 -25 6 -4 9 -1 8 6 -2 6 4 14 12 16 12 4 12 3 2 -5 -8 -5 -14 -13
-15 -18 -1 -5 -7 -8 -13 -6 -6 1 -9 -10 -6 -30 4 -25 2 -30 -10 -25 -12 4 -14
0 -11 -14 3 -10 10 -16 16 -12 6 4 7 1 3 -6 -5 -7 -14 -10 -21 -7 -8 3 -18 -1
-25 -8 -8 -10 -7 -15 4 -19 11 -4 13 -1 9 11 -6 14 -5 15 9 2 18 -17 5 -30
-23 -25 -12 3 -16 -1 -12 -11 3 -7 9 -11 14 -8 5 3 9 3 9 -1 0 -3 -10 -10 -22
-15 -19 -7 -19 -9 -5 -9 10 -1 15 -6 12 -11 -4 -6 -11 -8 -16 -5 -5 4 -9 -7
-9 -23 0 -18 -6 -32 -16 -36 -9 -4 -14 -9 -10 -13 3 -3 -2 -15 -11 -26 -10
-11 -12 -17 -5 -13 6 4 12 4 13 -1 0 -4 2 -16 4 -25 3 -15 0 -16 -18 -7 -22
10 -22 10 0 -9 20 -17 21 -22 8 -32 -8 -7 -13 -16 -10 -20 3 -5 -5 -6 -17 -3
-23 5 -23 5 -3 -11 11 -9 16 -16 10 -15 -24 3 -27 -2 -9 -16 18 -14 18 -14 -4
-10 -20 3 -21 2 -11 -17 10 -18 9 -20 -5 -15 -9 4 -15 3 -15 -1 4 -22 -2 -42
-10 -38 -5 4 -4 -5 2 -19 7 -14 16 -25 20 -25 5 0 1 -7 -7 -16 -9 -8 -21 -12
-28 -8 -9 6 -9 3 1 -9 9 -11 10 -17 2 -17 -6 0 -11 -4 -11 -10 0 -5 8 -7 18
-4 13 5 14 4 3 -4 -8 -6 -23 -9 -33 -7 -10 2 -16 0 -13 -6 4 -5 11 -7 16 -4 5
4 9 0 10 -7 0 -7 2 -21 4 -31 2 -9 -1 -15 -6 -11 -5 3 -7 9 -4 14 3 5 0 12 -6
16 -7 4 -9 3 -5 -4 3 -5 0 -13 -6 -15 -10 -4 -10 -6 0 -6 6 -1 12 -8 12 -17 0
-9 5 -12 12 -8 7 4 8 3 4 -5 -4 -6 -12 -9 -17 -6 -9 6 -12 -3 -12 -37 0 -10
-5 -14 -14 -11 -8 3 -13 2 -12 -3 1 -5 0 -11 -1 -14 -1 -3 -3 -17 -4 -32 -2
-26 -1 -27 18 -10 19 17 19 17 3 -8 -20 -28 -22 -44 -5 -34 7 4 8 3 4 -5 -4
-6 -12 -9 -17 -6 -5 4 -9 1 -9 -5 0 -6 -6 -8 -12 -5 -7 4 -5 0 4 -8 12 -9 14
-17 7 -24 -13 -13 -20 -83 -8 -83 5 0 1 -8 -8 -18 -10 -11 -22 -17 -28 -14 -5
3 -1 -5 10 -18 l20 -23 -23 12 c-12 7 -22 8 -21 4 1 -4 1 -10 -1 -13 -8 -22
-8 -50 0 -45 5 3 10 -1 10 -10 0 -9 -4 -13 -10 -10 -6 3 -10 -1 -10 -10 0 -9
5 -13 11 -9 8 5 8 1 0 -13 -6 -11 -7 -23 -4 -27 3 -3 1 -6 -6 -6 -7 0 -10 -4
-6 -9 3 -5 0 -13 -6 -17 -8 -4 -7 -9 2 -16 10 -6 7 -7 -8 -3 -22 6 -31 -4 -15
-19 4 -4 7 -17 7 -29 0 -13 6 -22 15 -22 8 -1 14 -6 13 -11 -1 -6 14 -11 33
-12 55 -3 61 -5 61 -18 0 -9 -6 -9 -23 2 -15 10 -24 12 -29 4 -3 -6 -3 -10 2
-9 4 1 15 1 23 0 13 -1 13 -2 0 -11 -10 -6 -4 -8 20 -7 23 1 34 -2 33 -11 -2
-6 0 -11 5 -11 20 3 32 -2 26 -13 -4 -7 -3 -8 4 -4 6 4 8 14 5 23 -4 11 -3 14
5 9 7 -4 12 -15 12 -24 0 -15 2 -15 10 -2 7 11 10 11 10 2 0 -7 4 -11 9 -7 5
3 12 -3 14 -12 4 -15 5 -15 6 2 2 16 5 14 16 -10 8 -18 14 -23 14 -13 1 9 6
20 12 24 7 4 9 0 5 -13 -4 -14 -1 -19 14 -20 13 -1 18 3 14 10 -3 7 1 4 9 -6
9 -10 18 -18 21 -18 19 2 26 0 26 -10 0 -8 -4 -8 -14 0 -11 9 -16 9 -22 0 -4
-7 -3 -9 4 -5 6 3 14 2 17 -4 5 -8 11 -7 21 1 11 9 14 8 14 -2 0 -11 2 -11 10
1 7 11 10 11 10 2 0 -10 5 -10 23 -1 21 11 21 11 7 -6 -14 -17 -13 -17 9 -10
20 6 23 4 18 -9 -4 -10 -3 -15 3 -11 18 11 51 14 45 4 -4 -5 -10 -7 -15 -4 -5
3 -11 1 -14 -4 -7 -10 46 -7 64 4 9 5 11 4 6 -3 -4 -7 -2 -12 4 -12 6 0 8 -5
4 -11 -5 -8 -1 -8 14 0 11 6 22 14 24 18 3 5 4 3 2 -3 -1 -6 2 -17 7 -25 7
-11 9 -10 9 4 0 10 5 15 10 12 6 -4 7 -11 4 -17 -4 -7 0 -7 13 1 14 7 23 7 31
-1 9 -9 12 -8 12 6 0 9 5 14 10 11 6 -4 7 -12 3 -18 -4 -7 1 -6 10 2 15 12 17
12 12 0 -6 -16 42 -42 51 -28 3 5 10 7 15 4 5 -4 9 2 10 12 0 16 1 16 9 -2 5
-11 9 -15 9 -10 1 6 6 3 11 -5 9 -13 10 -13 10 0 0 13 1 13 10 0 5 -8 10 -10
10 -4 0 6 7 11 15 11 12 0 12 -3 2 -15 -10 -13 -9 -14 10 -4 18 10 24 9 33 -5
10 -15 11 -15 6 -1 -4 14 3 16 51 12 37 -2 60 -9 70 -21 9 -12 12 -13 8 -3 -4
9 -1 8 8 -3 13 -16 15 -16 21 -2 3 9 2 14 -2 11 -5 -3 -9 1 -9 9 0 11 4 12 14
4 7 -6 11 -15 8 -19 -3 -4 1 -10 9 -13 10 -4 12 1 9 16 -4 20 -3 20 7 5 6 -10
16 -18 22 -18 6 0 5 7 -3 18 -12 15 -11 14 8 -2 12 -10 28 -16 35 -13 7 2 22
0 32 -6 16 -8 18 -6 12 8 -5 14 -4 16 7 7 8 -7 17 -9 20 -5 4 3 7 1 7 -6 0 -7
4 -9 10 -6 19 11 50 14 55 4 4 -5 12 -6 18 -2 21 13 47 13 47 0 0 -8 4 -7 10
3 5 8 10 11 10 6 0 -5 7 -3 15 4 13 11 14 10 9 -4 -5 -14 -3 -15 22 -6 16 6
32 17 37 23 5 7 6 4 3 -9 -4 -14 -2 -21 8 -21 8 0 12 6 9 15 -5 12 -2 12 15 3
24 -13 29 -3 10 19 -11 12 -10 12 3 2 12 -9 19 -9 29 1 10 9 11 9 6 0 -4 -7
-2 -13 3 -13 6 0 11 5 11 11 0 5 4 7 10 4 5 -3 19 -1 30 5 25 13 26 2 3 -17
-16 -13 -16 -13 5 -3 12 6 22 16 22 23 0 8 4 7 10 -3 8 -12 11 -12 28 3 10 9
22 14 26 10 14 -15 38 -12 32 4 -6 14 -4 14 11 2 15 -12 16 -12 10 3 -3 10 -2
18 3 18 6 0 10 -8 11 -17 0 -15 2 -15 8 2 l8 20 5 -20 c5 -16 6 -17 7 -2 0 9
6 17 12 17 6 0 7 -6 2 -12 -4 -7 6 -5 21 6 16 10 26 14 23 9 -3 -5 3 -9 13 -9
11 0 22 6 24 13 3 7 -1 10 -8 7 -8 -3 -16 -1 -20 4 -6 10 24 9 41 -1 7 -4 16
0 22 10 6 10 11 14 11 9 0 -5 7 -3 15 4 8 7 12 16 9 21 -8 14 -25 0 -18 -14 4
-8 2 -7 -7 1 -12 11 -12 14 1 22 8 6 22 7 30 4 9 -3 6 3 -6 15 -15 14 -21 29
-18 51 3 21 0 29 -8 24 -7 -4 -8 -3 -4 4 4 6 14 9 24 6 14 -5 15 -4 2 5 -13 9
-13 11 0 11 13 0 13 1 0 10 -13 9 -13 11 0 20 12 8 13 10 1 10 -8 0 -11 3 -8
7 4 3 -1 15 -10 26 -18 19 -17 20 7 7 23 -12 24 -12 11 3 -7 10 -10 17 -5 17
5 0 2 6 -6 13 -9 7 -15 19 -15 27 0 8 -6 21 -15 28 -13 11 -12 11 7 3 34 -17
40 -12 13 9 l-25 20 30 -10 c26 -9 28 -8 13 3 -10 8 -14 18 -10 22 4 5 2 5 -4
2 -7 -4 -14 2 -17 13 -3 11 -2 18 3 15 4 -3 11 2 14 11 3 8 2 13 -2 10 -4 -2
-12 7 -19 20 -6 13 -7 22 -2 18 5 -3 9 13 9 35 0 21 3 41 8 44 4 2 2 2 -5 1
-7 -2 -15 1 -18 6 -4 6 1 10 9 10 8 0 17 4 21 9 3 6 -4 8 -16 6 -18 -4 -19 -2
-7 12 8 10 8 14 1 10 -6 -4 -15 -2 -19 4 -4 8 -3 9 5 5 6 -4 14 0 18 9 3 10 0
20 -6 25 -9 5 -8 9 5 14 16 6 15 8 -4 27 -23 21 -31 39 -9 21 10 -8 13 -6 13
9 0 14 -5 18 -21 13 -20 -6 -20 -6 0 11 11 9 14 14 8 10 -7 -3 -13 -1 -13 4 0
6 8 11 18 11 14 0 15 2 2 9 -8 6 -18 7 -22 5 -4 -3 -5 2 -1 11 4 12 8 13 13 5
5 -9 9 -9 14 -1 4 6 2 11 -5 11 -8 0 -8 5 2 18 11 14 11 15 -1 5 -8 -7 -19
-13 -24 -13 -6 1 0 10 14 22 l25 21 -25 -8 c-20 -7 -23 -5 -14 6 19 24 13 50
-10 44 -19 -6 -20 -5 -3 5 17 11 17 14 3 29 -15 17 -15 31 -1 65 6 13 4 21 -3
24 -15 5 -16 32 -1 32 5 0 7 -4 4 -10 -4 -6 1 -7 11 -3 15 5 15 7 0 15 -9 5
-14 13 -11 19 4 5 2 9 -4 9 -5 0 -12 -6 -15 -12 -3 -7 -3 -1 -1 15 2 15 -1 27
-6 27 -5 0 -4 6 3 14 10 11 16 11 28 2 13 -9 13 -9 2 6 -8 10 -20 14 -29 11
-10 -4 -14 -2 -10 5 4 6 2 12 -5 15 -7 2 -2 3 12 2 14 -1 20 0 14 2 -7 2 -10
13 -7 24 3 11 0 19 -7 19 -10 0 -9 4 1 18 7 9 9 14 4 9 -11 -9 -43 63 -37 85
2 10 9 15 16 11 6 -4 5 1 -3 10 -7 9 -19 17 -27 17 -7 0 -15 4 -18 9 -4 5 4 7
16 4 l23 -5 -22 16 c-23 17 -27 51 -9 75 8 11 8 13 0 8 -7 -4 -15 0 -18 9 -9
24 -8 26 17 14 20 -10 20 -10 5 3 -10 8 -14 18 -10 22 4 5 1 4 -7 0 -11 -6
-13 -4 -8 8 5 13 1 17 -16 17 -17 0 -19 2 -7 9 8 6 17 8 20 6 4 -2 7 2 7 10 0
8 -3 12 -7 10 -4 -2 -16 2 -26 10 -18 13 -18 14 6 8 22 -5 23 -4 9 8 -23 20
-38 64 -29 79 5 8 5 21 0 31 -5 9 -7 19 -3 22 3 4 -2 9 -11 13 -9 3 -16 10
-16 15 0 4 7 6 15 3 8 -4 15 -1 15 6 0 6 -4 9 -9 5 -6 -3 -15 4 -21 15 -6 11
-8 20 -5 20 3 0 1 10 -5 23 -10 20 -10 20 3 4 13 -16 15 -16 21 -2 3 9 2 13
-4 10 -13 -8 -13 8 0 21 7 7 6 11 -4 11 -8 0 -13 -4 -10 -9 3 -4 0 -8 -6 -8
-7 0 -9 7 -6 16 3 9 6 18 6 20 0 3 6 2 13 -2 9 -6 9 -4 1 7 -6 8 -10 24 -8 37
2 12 -1 22 -7 22 -5 0 -8 -4 -5 -8 3 -5 -1 -9 -9 -9 -9 0 -11 5 -6 11 17 23
22 48 8 43 -8 -3 -14 1 -14 8 0 8 7 11 15 7 10 -4 13 -1 8 7 -15 24 -12 80 4
85 8 3 3 4 -12 2 -15 -2 -25 1 -22 5 3 5 11 9 19 9 8 0 11 7 8 20 -3 11 -9 20
-14 20 -5 0 -9 5 -9 12 0 6 12 1 26 -13 l27 -24 -19 29 c-20 32 -25 64 -11 73
6 3 7 1 3 -5 -4 -7 -2 -12 5 -12 8 0 7 -5 -2 -17 -13 -16 -12 -17 3 -5 13 10
15 19 8 38 -8 20 -6 24 8 24 16 1 16 1 0 11 -10 5 -18 15 -18 22 0 8 2 9 8 1
8 -13 44 -15 36 -2 -3 5 -10 5 -16 2 -8 -5 -9 -1 -5 10 4 10 7 20 7 22 0 3 4
3 8 0 5 -3 9 1 9 10 0 10 -7 13 -21 9 -19 -5 -19 -5 -3 5 9 6 27 8 40 5 17 -5
19 -4 7 4 -16 11 -24 55 -8 45 4 -3 6 -10 3 -15 -4 -5 -2 -9 3 -9 6 0 13 7 16
16 3 8 2 13 -3 10 -20 -13 -19 25 2 39 12 8 16 15 9 15 -10 0 -10 5 -2 20 6
11 18 20 27 20 14 0 14 2 -3 15 -12 10 -13 13 -3 10 13 -5 47 20 48 35 0 18
15 39 24 33 6 -4 7 -1 2 7 -6 10 -12 7 -26 -11 -9 -13 -15 -27 -13 -31 3 -4 3
-8 0 -8 -3 0 -10 10 -17 21 -8 16 -8 20 1 14 14 -9 39 24 35 46 -3 12 2 15 16
12 12 -3 19 0 20 8 1 8 2 21 3 29 0 8 9 14 18 14 10 -1 14 4 11 12 -3 8 -10
14 -16 14 -6 0 -7 3 -4 6 4 4 14 1 23 -7 16 -13 16 -12 5 9 -7 12 -17 20 -23
16 -7 -4 -8 -3 -4 5 4 6 12 9 17 6 5 -4 9 -1 9 4 0 6 5 11 11 11 8 0 8 -4 0
-14 -9 -11 -9 -16 0 -22 7 -4 9 -3 5 4 -3 6 -2 14 4 17 8 5 7 12 -2 23 -10 12
-10 14 0 8 7 -4 12 -2 12 8 0 8 -3 16 -7 19 -5 2 -3 2 4 1 17 -4 26 13 11 19
-7 3 -3 6 10 6 13 1 22 7 21 14 -5 40 2 56 22 52 18 -4 19 -2 8 11 -10 13 -10
17 0 24 8 5 9 10 3 14 -6 3 -12 0 -15 -6 -2 -7 -8 -9 -13 -5 -11 11 17 28 35
22 10 -4 9 1 -3 21 -17 25 -17 25 6 13 l23 -12 -24 27 c-14 14 -20 26 -14 26
6 0 13 -4 15 -10 2 -5 14 -1 28 10 20 15 21 18 6 17 -10 -1 -21 4 -24 12 -3 8
0 11 7 7 7 -5 9 -1 5 8 -3 9 -10 13 -15 10 -5 -3 -6 2 -3 10 5 14 8 13 23 -2
9 -10 13 -13 8 -6 -4 6 -5 19 -1 28 5 12 2 15 -12 10 -11 -3 -6 3 9 14 25 17
26 20 10 26 -15 6 -15 8 -3 16 13 9 13 10 0 11 -8 1 -19 1 -24 0 -5 -1 -4 4 2
12 7 8 9 17 5 21 -4 4 1 4 11 0 13 -5 17 -4 13 3 -4 6 -1 14 5 17 7 3 4 4 -6
3 -10 -1 -21 5 -23 13 -4 12 -2 12 5 2 7 -10 12 -9 23 4 9 12 10 15 2 10 -8
-4 -13 -2 -13 4 0 6 -5 8 -12 4 -7 -4 -8 -3 -4 5 4 6 12 8 18 5 8 -5 9 -1 5
10 -4 10 -7 20 -7 23 0 3 -8 -1 -17 -8 -16 -13 -17 -12 -5 3 8 9 11 22 8 27
-4 5 -2 12 4 16 6 4 7 12 3 18 -11 18 -12 38 -2 31 5 -3 6 -10 3 -16 -4 -7 -2
-8 4 -4 6 4 8 14 5 23 -4 10 -2 14 4 10 5 -3 9 3 7 16 -1 12 -3 22 -4 22 -1 0
-3 38 -5 85 -4 109 -3 103 -20 96 -20 -7 -19 2 3 22 10 10 13 14 7 10 -6 -4
-17 2 -24 14 -7 11 -8 17 -2 14 5 -4 13 -1 17 5 4 7 3 9 -3 6 -6 -4 -16 0 -23
9 -10 12 -11 17 -1 27 10 9 11 8 6 -8 -5 -15 -4 -17 3 -6 11 16 -6 54 -20 45
-4 -3 -8 0 -8 6 0 6 -5 8 -12 4 -7 -4 -8 -3 -4 5 4 6 11 9 15 7 3 -3 7 4 7 14
0 10 -5 16 -12 13 -6 -2 -17 3 -24 12 -7 8 -9 15 -6 15 4 0 1 10 -6 23 -13 23
-16 37 -20 77 -1 14 -8 31 -15 38 -7 8 -10 19 -7 25 5 8 2 8 -7 0 -17 -17 -43
-17 -36 0 3 8 -4 12 -22 11 -14 -1 -28 -3 -31 -4 -3 -1 -9 -2 -13 -1 -5 1 -6
-3 -3 -8 3 -5 -1 -14 -9 -21 -8 -7 -15 -17 -15 -23 0 -6 7 -2 16 9 14 18 15
18 8 -6 -3 -14 -6 -27 -6 -30 -1 -26 4 -31 25 -25 17 5 19 4 7 -4 -12 -8 -12
-13 -2 -23 6 -6 12 -16 12 -21 0 -5 -8 1 -18 13 -14 18 -19 19 -19 7 0 -9 4
-14 9 -11 4 3 8 0 8 -6 0 -6 10 -15 23 -21 l22 -10 -23 5 c-15 3 -22 0 -19 -7
2 -7 13 -11 23 -9 18 3 18 3 1 -10 -10 -8 -17 -20 -15 -28 2 -9 -4 -14 -14
-14 -10 1 -15 -3 -12 -8 3 -5 12 -7 20 -4 8 3 14 1 14 -5 0 -6 5 -7 12 -3 7 4
8 3 4 -5 -4 -6 -12 -9 -17 -6 -15 10 -10 -7 9 -28 9 -11 12 -17 5 -14 -17 10
-28 -13 -12 -24 9 -7 4 -8 -16 -4 l-30 6 25 -15 c14 -8 19 -15 13 -16 -7 0
-13 -5 -13 -11 0 -5 6 -7 13 -4 6 3 2 -2 -10 -11 -24 -17 -30 -34 -12 -34 5 0
7 6 3 13 -4 6 -3 9 1 4 14 -12 13 -46 -1 -51 -9 -3 -11 1 -8 12 5 13 4 14 -4
4 -5 -8 -9 -23 -8 -35 1 -12 -3 -26 -9 -30 -6 -5 -2 -6 8 -3 15 5 17 2 12 -15
-5 -16 -4 -19 5 -14 9 5 11 4 6 -4 -6 -9 -11 -9 -22 0 -12 10 -13 8 -5 -12 8
-21 6 -25 -11 -26 -17 -2 -18 0 -6 15 12 16 11 16 -7 0 -21 -17 -40 -19 -62
-5 -9 6 -11 3 -6 -10 6 -16 5 -17 -12 -3 -11 9 -16 10 -11 3 4 -7 2 -13 -3
-13 -6 0 -11 4 -11 9 0 5 -8 8 -17 6 -10 -1 -17 -9 -17 -17 1 -8 -5 -15 -13
-15 -9 0 -11 7 -8 21 5 18 4 17 -8 -3 -11 -18 -16 -20 -20 -10 -4 10 -6 9 -6
-3 -1 -12 -6 -15 -18 -11 -11 4 -14 3 -9 -5 5 -8 1 -10 -10 -5 -11 4 -15 2
-11 -4 4 -6 0 -14 -9 -17 -8 -3 -12 -2 -9 4 3 6 -1 7 -10 4 -9 -4 -14 -12 -12
-19 6 -15 -23 -16 -43 -1 -13 9 -13 9 -2 -6 11 -14 10 -20 -6 -36 -11 -11 -18
-23 -15 -25 3 -3 -6 -4 -19 -1 -12 2 -17 2 -10 -2 6 -3 12 -10 12 -15 0 -6 -8
-5 -20 1 -14 7 -20 7 -20 0 0 -5 5 -10 10 -10 6 0 10 -5 10 -11 0 -5 -4 -7
-10 -4 -9 5 -14 -6 -12 -26 1 -3 -5 -6 -13 -6 -10 0 -11 5 -4 18 5 10 9 21 9
26 -1 4 -7 -3 -15 -17 -10 -19 -11 -28 -2 -39 9 -12 9 -13 0 -7 -7 4 -19 4
-25 -1 -7 -4 -26 -8 -41 -9 -23 -2 -26 0 -17 11 8 10 8 15 0 20 -6 4 -9 13 -6
21 3 8 -1 17 -9 20 -8 4 -12 10 -9 15 3 5 -2 6 -10 3 -19 -7 -22 22 -3 30 6 3
0 3 -15 1 -19 -2 -25 0 -22 10 3 8 12 11 20 8 8 -3 14 -1 14 4 0 9 -14 13 -53
14 -25 0 -10 19 16 20 22 0 22 0 -1 10 -13 5 -28 7 -32 4 -5 -3 -12 0 -16 6
-4 8 -3 9 4 5 8 -5 12 0 12 13 0 12 -6 22 -12 23 -49 5 -69 18 -63 38 5 15 2
17 -15 13 -16 -4 -19 -2 -14 13 4 11 4 16 -1 12 -4 -4 -17 -3 -28 3 -15 9 -18
8 -11 -3 7 -11 5 -11 -9 0 -9 8 -21 11 -27 7 -7 -4 -10 -1 -8 6 1 8 -2 14 -7
14 -6 0 -9 -4 -7 -8 1 -5 -2 -6 -8 -2 -5 3 -10 0 -10 -7 0 -8 -5 -6 -11 5 -8
14 -14 16 -25 6 -12 -10 -13 -9 -8 5 5 13 2 17 -12 14 -12 -2 -18 2 -16 11 2
9 -3 11 -15 7 -15 -6 -15 -5 2 14 14 16 21 18 28 8 6 -10 7 -9 4 2 -2 8 -13
14 -23 13 -19 -1 -19 -1 0 12 10 8 20 25 20 37 1 13 6 29 10 37 6 10 5 12 -2
7 -7 -4 -12 -1 -12 9 0 10 -5 13 -12 9 -7 -4 -8 -3 -4 5 6 9 11 9 22 0 13 -10
13 -8 4 15 -7 20 -7 25 2 20 8 -5 9 -2 3 12 -9 24 -14 75 -8 92 3 6 12 12 20
12 8 0 12 4 8 10 -3 5 -13 6 -23 3 -15 -6 -15 -5 1 11 17 18 19 18 33 0 13
-17 13 -16 2 9 -9 21 -9 30 0 39 18 18 14 32 -5 17 -9 -8 -5 3 10 27 14 23 23
45 19 49 -4 4 3 3 14 -3 21 -11 34 -7 34 10 0 4 -5 8 -11 8 -5 0 -7 -6 -3 -12
4 -7 3 -10 -1 -5 -10 9 -15 46 -6 45 3 0 13 0 21 1 13 1 13 3 1 10 -8 5 -21 7
-30 5 -9 -2 -4 2 11 9 26 12 26 13 8 25 -15 9 -18 9 -14 -1 3 -8 -2 -14 -10
-14 -8 0 -13 4 -10 9 3 4 -1 8 -10 8 -8 0 -16 -3 -19 -7 -2 -5 -2 -3 -1 4 2 7
-1 15 -6 18 -6 4 -10 2 -10 -3z m945 -129 c-2 -10 -4 -19 -4 -21 -1 -2 -6 0
-11 3 -8 5 -7 11 1 21 15 18 18 18 14 -3z m83 -24 c10 -13 10 -18 0 -22 -8 -3
-14 5 -14 20 -1 13 -1 23 0 21 1 -2 7 -10 14 -19z m-1197 -86 c12 -16 12 -17
-2 -6 -9 7 -20 9 -24 5 -5 -4 -5 -1 -1 6 9 16 11 15 27 -5z m136 -248 c0 -8
-4 -12 -9 -9 -4 3 -8 9 -8 15 0 5 4 9 8 9 5 0 9 -7 9 -15z m1199 -75 c0 -28
-2 -50 -5 -50 -3 0 -7 23 -8 50 -1 28 2 50 5 50 4 0 7 -23 8 -50z m-229 -33
c0 -8 -6 -14 -14 -14 -17 0 -17 14 0 20 6 3 12 6 13 6 0 1 1 -5 1 -12z m228
-57 c-4 -6 -1 -19 6 -28 12 -16 12 -16 -5 0 -16 14 -15 38 0 38 3 0 2 -5 -1
-10z m0 -50 c3 -5 1 -10 -4 -10 -6 0 -11 5 -11 10 0 6 2 10 4 10 3 0 8 -4 11
-10z m-404 -17 c13 -16 12 -17 -3 -4 -17 13 -22 21 -14 21 2 0 10 -8 17 -17z
m114 8 c3 -5 2 -12 -3 -15 -5 -3 -9 1 -9 9 0 17 3 19 12 6z m-641 -10 c3 -5
-1 -11 -9 -14 -9 -4 -12 -1 -8 9 6 16 10 17 17 5z m96 -163 c0 -5 5 -6 12 -2
7 4 8 3 4 -4 -5 -9 -13 -9 -27 -2 -23 13 -24 17 -4 17 8 0 15 -4 15 -9z m24
-36 c3 -5 -1 -9 -9 -9 -8 0 -15 4 -15 9 0 4 4 8 9 8 6 0 12 -4 15 -8z m82 -34
c4 -7 4 -10 -1 -6 -4 4 -14 1 -21 -7 -8 -8 -21 -12 -29 -9 -22 9 -18 23 5 19
11 -2 22 0 25 6 8 12 12 11 21 -3z m731 -34 c-3 -3 -12 -4 -19 -1 -8 3 -5 6 6
6 11 1 17 -2 13 -5z m-1502 -116 c4 4 2 -3 -4 -15 -6 -13 -14 -23 -17 -23 -3
0 -2 5 1 10 4 6 1 19 -7 28 -11 15 -11 15 3 5 9 -7 19 -9 24 -5z m-4 -71 c-10
-9 -11 -8 -5 6 3 10 9 15 12 12 3 -3 0 -11 -7 -18z m43 -213 c9 -24 2 -26 -12
-4 -7 11 -8 20 -3 20 5 0 12 -7 15 -16z m15 -77 c8 -10 7 -14 -2 -14 -8 0 -14
6 -14 14 0 7 1 13 2 13 2 0 8 -6 14 -13z m1261 -21 c0 -11 -19 -15 -25 -6 -3
5 1 10 9 10 9 0 16 -2 16 -4z m-1355 -755 c-9 -8 -36 -10 -30 -2 2 4 11 8 20
8 8 0 13 -3 10 -6z m1150 -11 c-3 -5 -12 -10 -18 -10 -7 0 -6 4 3 10 19 12 23
12 15 0z m34 -194 c9 -11 9 -16 0 -22 -8 -4 -9 -3 -5 4 4 7 2 12 -3 12 -6 0
-11 5 -11 10 0 14 5 13 19 -4z m38 -142 c-3 -3 -12 -4 -19 -1 -8 3 -5 6 6 6
11 1 17 -2 13 -5z m-1525 -311 c-6 -2 -9 -10 -6 -15 4 -7 2 -8 -5 -4 -13 9 -5
26 12 25 9 0 8 -2 -1 -6z m1603 -23 c3 -5 1 -10 -4 -10 -6 0 -11 5 -11 10 0 6
2 10 4 10 3 0 8 -4 11 -10z m10 -31 c11 -16 1 -19 -13 -3 -7 8 -8 14 -3 14 5
0 13 -5 16 -11z m-1675 -169 c0 -5 -4 -10 -10 -10 -5 0 -10 5 -10 10 0 6 5 10
10 10 6 0 10 -4 10 -10z m-5 -30 c3 -6 -1 -7 -9 -4 -18 7 -21 14 -7 14 6 0 13
-4 16 -10z m-80 -270 c-3 -5 -12 -10 -18 -10 -7 0 -6 4 3 10 19 12 23 12 15 0z
m1832 -66 c-3 -3 -12 -4 -19 -1 -8 3 -5 6 6 6 11 1 17 -2 13 -5z m-1912 -224
c-3 -5 -1 -10 6 -10 7 0 10 -3 6 -6 -9 -9 -28 6 -22 17 4 5 8 9 11 9 3 0 2 -4
-1 -10z m-30 -188 c-3 -3 -11 0 -18 7 -9 10 -8 11 6 5 10 -3 15 -9 12 -12z m9
-23 c-2 -4 6 -15 18 -23 12 -9 17 -16 11 -16 -6 0 -16 7 -23 15 -7 8 -16 13
-19 10 -4 -2 -8 2 -8 9 0 7 6 13 13 13 7 0 11 -4 8 -8z m1953 -24 c0 -8 -4
-12 -9 -9 -4 3 -8 9 -8 15 0 5 4 9 8 9 5 0 9 -7 9 -15z m-2 -35 c3 -5 1 -10
-4 -10 -6 0 -11 5 -11 10 0 6 2 10 4 10 3 0 8 -4 11 -10z m-1380 -180 c3 -5 1
-10 -4 -10 -6 0 -11 5 -11 10 0 6 2 10 4 10 3 0 8 -4 11 -10z m193 -47 c-8
-10 -14 -10 -24 -2 -18 15 -18 15 11 15 19 0 22 -3 13 -13z"/>
<path d="M3480 4580 c-6 -11 -8 -20 -6 -20 3 0 10 9 16 20 6 11 8 20 6 20 -3
0 -10 -9 -16 -20z"/>
<path d="M4504 4510 c1 -14 7 -34 13 -45 6 -11 11 -23 12 -27 1 -5 3 -8 6 -8
3 0 8 0 11 0 3 0 -4 13 -15 28 -16 23 -18 32 -8 42 9 9 9 11 0 6 -6 -3 -14 1
-16 11 -3 10 -4 7 -3 -7z"/>
<path d="M3427 4433 c-13 -12 -7 -23 11 -22 10 0 12 3 4 6 -6 2 -10 9 -6 14 6
10 0 12 -9 2z"/>
<path d="M3424 4389 c-3 -6 -2 -15 4 -21 6 -6 12 -6 17 3 6 8 4 10 -5 4 -10
-6 -12 -4 -7 8 7 19 2 23 -9 6z"/>
<path d="M4364 4307 c1 -20 4 -23 14 -15 7 6 9 14 5 17 -4 4 -11 10 -14 14 -4
5 -6 -3 -5 -16z"/>
<path d="M3146 4298 c3 -5 10 -6 15 -3 13 9 11 12 -6 12 -8 0 -12 -4 -9 -9z"/>
<path d="M2674 4254 c3 -8 2 -13 -3 -10 -10 7 -34 -18 -25 -26 3 -3 1 -9 -5
-12 -6 -4 -8 4 -6 21 2 16 2 23 -1 16 -3 -7 -11 -11 -17 -9 -7 1 -9 1 -4 -1
13 -8 7 -25 -8 -20 -8 4 -17 1 -21 -5 -5 -7 -2 -8 7 -3 12 7 12 5 1 -6 -11
-12 -14 -12 -22 1 -9 13 -10 13 -10 0 0 -12 -2 -12 -9 -2 -7 11 -9 11 -14 -2
-3 -8 -1 -18 5 -22 7 -4 8 -3 4 4 -5 8 -2 10 8 6 19 -7 21 -25 4 -21 -7 1 -12
-4 -10 -11 1 -8 -2 -11 -8 -7 -6 3 -8 10 -5 15 3 4 -1 10 -9 13 -8 3 -17 -1
-20 -10 -5 -12 -9 -13 -21 -3 -10 8 -15 9 -15 2 0 -6 -8 -9 -17 -6 -15 5 -15
3 1 -10 22 -18 14 -21 -15 -6 -13 7 -19 7 -19 0 0 -5 -8 -10 -17 -10 -14 0
-12 -5 8 -27 13 -14 18 -23 10 -18 -10 5 -12 4 -7 -4 4 -6 12 -9 17 -5 5 3 7
10 4 15 -6 9 5 12 43 11 13 -1 20 3 16 9 -4 7 2 6 16 -1 12 -6 24 -9 28 -6 3
3 1 6 -5 6 -6 0 -13 6 -16 13 -4 10 2 13 20 9 17 -3 29 1 35 12 5 9 14 16 19
16 6 0 7 -5 3 -12 -4 -7 -3 -8 5 -4 6 4 9 11 6 16 -3 4 1 10 9 13 18 7 54 -24
48 -41 -2 -7 0 -11 5 -10 4 2 9 -1 10 -7 0 -5 -3 -9 -9 -7 -5 1 -7 -7 -3 -20
7 -22 6 -22 -7 -4 -12 15 -17 16 -23 6 -5 -9 -4 -11 3 -6 7 4 12 1 12 -9 0
-11 -7 -14 -24 -11 -19 3 -23 1 -19 -15 7 -24 -5 -25 -23 -1 -13 16 -14 16 -7
-2 5 -16 3 -18 -11 -13 -11 5 -15 3 -10 -5 5 -8 2 -9 -9 -5 -9 3 -19 1 -23 -4
-3 -6 -15 -9 -25 -6 -15 4 -17 2 -9 -12 7 -14 5 -17 -10 -16 -11 1 -23 4 -26
8 -10 10 -26 9 -20 -1 5 -8 -8 -12 -47 -13 -16 0 -17 -3 -6 -17 11 -14 11 -15
-1 -4 -17 14 -44 16 -35 2 3 -6 -1 -7 -9 -4 -9 3 -14 9 -11 13 2 4 -2 8 -10 8
-8 0 -12 -4 -9 -9 5 -8 -8 -11 -41 -9 -17 2 -18 0 -5 -9 13 -10 12 -11 -3 -6
-10 3 -21 6 -23 6 -3 0 -2 6 2 13 6 9 5 9 -8 0 -8 -7 -17 -12 -19 -10 -2 1 3
-4 11 -12 13 -12 13 -13 -3 -7 -10 3 -23 6 -28 6 -6 0 -8 4 -5 9 4 5 -3 7 -15
4 -16 -4 -17 -8 -7 -14 14 -9 -19 -13 -75 -10 -20 1 -26 -2 -21 -11 4 -7 -2
-5 -13 5 -14 12 -23 15 -28 7 -3 -5 -11 -7 -17 -4 -6 4 -14 0 -19 -7 -7 -12
-9 -12 -9 0 0 10 -5 10 -25 -3 -15 -10 -24 -12 -23 -5 2 6 -5 13 -15 14 -9 2
-15 -1 -11 -6 3 -5 0 -9 -5 -9 -6 0 -11 6 -11 13 0 8 -4 7 -10 -3 -9 -13 -10
-13 -10 0 0 13 -1 13 -10 0 -5 -8 -10 -10 -10 -5 0 12 -179 14 -197 2 -6 -4
-15 -2 -19 4 -4 8 -3 9 4 5 7 -4 12 -2 12 4 0 8 -9 10 -24 6 -29 -7 -40 3 -23
22 10 13 9 14 -9 4 -18 -9 -24 -8 -35 5 -10 12 -10 15 -1 9 7 -4 12 -2 12 6 0
10 3 9 11 -2 9 -13 10 -13 6 0 -2 8 -10 14 -16 13 -6 -2 -11 2 -11 7 0 6 5 10
11 10 5 0 7 5 4 10 -4 6 -11 7 -17 4 -7 -4 -8 -2 -4 4 5 9 13 9 26 2 24 -13
37 5 18 27 -12 15 -11 15 10 2 12 -8 20 -19 18 -26 -3 -8 1 -10 11 -6 11 5 14
3 9 -6 -6 -9 -3 -9 13 1 15 9 23 10 32 1 7 -7 20 -9 34 -3 13 5 26 6 29 3 3
-4 16 2 28 13 13 11 18 13 13 4 -12 -19 -14 -51 -3 -44 4 3 8 13 9 22 0 11 2
13 6 4 4 -10 8 -10 20 0 14 11 15 10 9 -12 -6 -21 -5 -22 4 -7 6 9 15 17 20
17 5 0 7 -8 3 -17 -4 -12 1 -9 15 7 12 14 21 20 22 15 0 -6 -6 -17 -12 -25 -7
-8 -4 -7 8 3 11 9 26 17 33 17 7 0 10 4 6 9 -3 5 -1 12 4 15 11 7 9 -13 -3
-32 -7 -12 -5 -12 15 -1 13 7 27 12 30 12 30 -9 58 -10 54 -3 -3 4 2 11 11 14
8 3 12 2 9 -4 -3 -6 4 -10 17 -10 19 0 20 2 8 11 -12 9 -11 9 5 4 11 -4 36 -8
55 -8 19 -1 38 -5 41 -10 3 -5 9 -2 12 6 4 11 0 15 -14 12 -11 -2 -17 0 -13 6
3 6 9 8 12 5 3 -3 12 0 20 7 13 9 14 9 8 0 -4 -8 -2 -13 4 -13 6 0 8 -5 4 -12
-6 -10 -5 -10 8 -1 8 7 18 10 21 6 4 -3 7 -1 7 6 0 7 -7 11 -14 8 -10 -4 -13
-1 -9 9 4 10 9 12 18 4 6 -5 16 -6 20 -2 5 4 4 0 0 -8 -7 -12 -6 -13 6 -4 14
12 33 15 82 15 15 0 27 4 27 10 0 6 -5 7 -12 3 -7 -4 -8 -3 -4 4 10 17 26 15
26 -4 0 -8 4 -13 9 -10 12 8 8 30 -7 49 -11 13 -10 17 5 26 10 6 13 11 6 11
-6 0 -14 -4 -18 -9 -3 -5 -18 -8 -33 -5 -21 4 -24 2 -12 -7 12 -9 11 -10 -7
-6 -13 3 -23 1 -23 -4 0 -5 5 -9 12 -9 6 0 8 -3 5 -6 -4 -4 -14 -1 -24 7 -11
9 -14 10 -9 2 4 -8 2 -13 -6 -14 -24 -2 -53 -1 -68 2 -10 3 -14 -3 -13 -16 1
-19 1 -19 -11 -3 -7 10 -16 15 -19 11 -4 -3 -7 -1 -7 6 0 7 -5 9 -10 6 -6 -4
-8 -10 -6 -14 3 -4 -1 -8 -9 -8 -8 0 -12 4 -9 9 3 4 -2 8 -11 8 -9 0 -13 -4
-10 -10 4 -7 -3 -7 -19 0 -17 6 -26 6 -26 0 0 -6 6 -10 13 -11 6 0 3 -4 -8 -8
-27 -11 -56 5 -49 27 5 14 4 14 -4 2 -6 -8 -9 -17 -6 -21 2 -4 -3 -9 -10 -12
-10 -4 -13 0 -11 14 2 11 0 17 -6 14 -5 -4 -9 -13 -9 -21 0 -12 -4 -12 -20 -4
-12 7 -18 16 -13 23 4 7 0 7 -10 -2 -14 -11 -20 -11 -34 0 -16 13 -17 12 -4
-4 8 -10 21 -15 30 -12 12 5 13 4 4 -6 -9 -9 -17 -8 -37 4 -18 12 -27 14 -32
5 -5 -7 -2 -8 7 -3 8 5 11 4 6 -1 -5 -5 -21 -9 -36 -9 -23 0 -27 4 -23 20 4
18 2 17 -13 -3 -12 -17 -20 -21 -28 -13 -7 7 -15 7 -26 -2 -12 -9 -12 -7 1 9
16 19 16 20 -2 20 -11 0 -20 -7 -20 -15 0 -11 -4 -10 -15 5 -8 10 -15 15 -15
10 0 -5 -6 -3 -14 3 -11 10 -17 8 -25 -6 -6 -10 -11 -12 -11 -5 0 6 -12 12
-26 12 -16 0 -23 -4 -18 -12 4 -7 3 -8 -5 -4 -8 5 -9 12 -2 20 7 8 5 12 -9 12
-10 0 -17 -3 -14 -7 2 -4 -5 -5 -16 -2 -11 3 -17 10 -13 16 3 6 1 7 -6 3 -7
-5 -9 -16 -5 -28 5 -18 4 -19 -9 -7 -8 8 -12 18 -9 23 3 5 0 6 -6 2 -9 -5 -9
-13 -2 -27 12 -21 1 -26 -19 -6 -10 10 -11 9 -6 -5 4 -10 11 -18 16 -18 5 0 8
-13 7 -29 -1 -16 4 -36 10 -44 8 -10 9 -17 3 -21 -5 -4 -15 2 -21 11 -10 16
-10 16 -5 -4 6 -24 -9 -40 -21 -22 -5 8 -3 9 6 4 9 -5 11 -4 6 4 -11 17 -25 4
-21 -19 3 -14 -1 -17 -12 -13 -8 3 -19 0 -24 -8 -7 -12 -9 -12 -9 1 0 9 -6 7
-16 -8 -9 -13 -22 -21 -28 -19 -7 3 -19 1 -27 -4 -12 -8 -12 -10 1 -19 19 -12
8 -13 -24 0 -14 5 -25 6 -25 2 4 -23 -2 -42 -11 -37 -6 4 -7 12 -3 18 4 7 1 7
-9 -1 -9 -8 -15 -19 -12 -26 4 -9 -3 -12 -20 -11 -22 3 -24 0 -16 -14 6 -13 5
-18 -5 -18 -8 0 -11 5 -8 11 4 6 -1 5 -10 -3 -9 -7 -15 -17 -12 -21 3 -5 0
-12 -6 -16 -8 -4 -9 -3 -5 4 4 7 2 12 -5 12 -6 0 -9 -8 -6 -19 4 -15 0 -18
-18 -16 -19 2 -22 -2 -21 -26 2 -23 -1 -26 -15 -19 -13 7 -18 5 -22 -12 -4
-13 -11 -19 -21 -15 -19 7 -31 -9 -15 -19 8 -5 9 -3 4 6 -5 9 -4 11 4 6 9 -6
9 -11 0 -22 -9 -11 -15 -12 -28 -2 -9 7 -13 9 -9 4 4 -5 0 -15 -8 -23 -8 -8
-12 -18 -9 -23 3 -5 0 -12 -6 -16 -7 -4 -9 -3 -6 3 4 6 1 13 -6 16 -9 3 -12
-4 -11 -25 2 -22 -1 -27 -9 -19 -18 18 -31 13 -16 -6 10 -11 10 -14 2 -9 -9 5
-13 1 -13 -11 0 -15 -2 -16 -10 -3 -5 8 -10 12 -11 8 -1 -5 -3 -12 -4 -18 -1
-5 -3 -13 -4 -17 -1 -5 -6 -1 -12 7 -9 12 -10 11 -6 -7 4 -16 1 -20 -11 -16
-11 5 -13 3 -7 -8 7 -11 5 -11 -10 1 -11 9 -16 10 -11 3 4 -8 2 -13 -6 -13
-10 0 -10 -2 -1 -8 9 -6 5 -13 -12 -26 -14 -10 -22 -22 -19 -27 3 -5 0 -9 -5
-9 -6 0 -11 5 -11 11 0 5 -4 8 -10 4 -5 -3 -7 -13 -4 -23 3 -9 -2 -6 -10 8
l-16 25 6 -26 c3 -15 1 -30 -5 -34 -6 -3 -8 -12 -5 -18 4 -7 4 -9 -1 -5 -4 4
-14 3 -21 -3 -8 -6 -22 -8 -31 -5 -17 6 -17 5 0 -8 16 -12 16 -14 1 -20 -22
-9 -26 -8 -18 6 4 6 3 8 -4 4 -6 -3 -9 -16 -7 -29 4 -20 3 -21 -9 -4 -12 16
-14 16 -20 2 -4 -10 -2 -14 5 -9 7 4 10 1 7 -7 -3 -8 -11 -13 -18 -11 -16 4
-41 -18 -34 -29 3 -5 0 -9 -6 -9 -7 0 -9 -7 -6 -17 6 -14 3 -14 -16 3 -19 16
-20 16 -9 1 12 -15 12 -20 1 -30 -10 -9 -11 -9 -5 1 6 11 3 12 -14 3 -11 -7
-21 -14 -21 -17 0 -3 4 -3 9 1 5 3 12 1 15 -4 4 -5 -4 -8 -17 -7 -14 2 -24 -2
-24 -10 0 -7 5 -10 10 -7 6 3 7 1 3 -6 -4 -6 -13 -11 -19 -10 -24 3 -38 -1
-33 -10 7 -11 -13 -9 -32 2 -7 5 -14 2 -18 -7 -3 -9 -11 -13 -18 -9 -6 3 -8 3
-4 -2 11 -12 -11 -46 -25 -40 -7 4 -3 -1 7 -9 11 -9 15 -16 9 -16 -7 0 -19 7
-28 16 -14 15 -15 14 -10 -14 3 -18 0 -34 -7 -38 -7 -4 -8 -3 -4 4 4 7 2 12
-3 12 -10 0 -15 -13 -13 -31 1 -3 -6 -6 -13 -6 -11 0 -12 4 -4 14 8 9 8 13 1
13 -12 0 -25 -33 -26 -67 -1 -12 2 -19 6 -17 3 2 10 0 13 -6 5 -8 12 -7 23 2
13 11 15 11 10 -4 -7 -16 11 -37 42 -52 8 -4 6 0 -4 8 -11 9 -15 16 -9 16 15
0 64 -66 55 -75 -4 -4 4 -2 17 5 13 6 21 7 17 2 -8 -13 23 -44 36 -36 7 4 6 0
0 -13 -9 -15 -8 -20 3 -20 8 0 12 4 9 8 -2 4 -1 10 4 13 8 5 12 -8 13 -46 0
-10 5 -18 10 -18 6 0 7 5 4 10 -3 6 -1 10 4 10 6 0 11 -4 11 -10 0 -5 5 -10
10 -10 7 0 7 7 0 23 -10 20 -10 21 4 4 8 -11 12 -25 9 -33 -3 -8 0 -14 6 -14
6 0 11 6 11 13 0 8 3 7 10 -3 5 -9 5 -19 -2 -27 -6 -8 -8 -16 -4 -20 3 -3 6
-1 6 6 0 7 5 9 10 6 6 -3 10 -1 10 5 0 7 5 6 14 -2 8 -7 11 -15 7 -18 -3 -3
-7 -11 -9 -19 -2 -11 0 -12 11 -3 14 12 27 6 27 -12 0 -6 -5 -4 -10 4 -7 12
-9 10 -7 -7 1 -18 4 -20 20 -11 17 9 18 7 12 -14 -7 -21 -7 -22 10 -8 15 12
17 12 10 1 -6 -11 -3 -13 14 -8 18 4 20 3 10 -9 -8 -10 -8 -14 0 -14 6 0 10
-6 9 -12 -2 -8 6 -13 20 -12 12 1 22 -3 22 -8 0 -5 6 -6 12 -2 9 5 8 2 -1 -9
-8 -10 -11 -20 -7 -24 3 -3 6 -1 6 5 0 6 7 9 15 6 12 -5 13 -9 4 -20 -7 -8 -9
-17 -5 -21 3 -3 6 -1 6 5 0 7 10 12 22 12 21 0 21 0 2 -15 -18 -15 -18 -15 0
-8 15 5 17 3 11 -8 -7 -12 -6 -12 7 -1 13 10 15 8 14 -15 -1 -20 4 -27 20 -28
12 -1 29 -9 39 -18 21 -21 32 -22 15 -2 -11 13 -10 14 4 9 18 -7 21 -20 6 -29
-19 -12 -1 -23 34 -21 25 1 32 -2 28 -12 -4 -10 4 -9 29 4 19 10 38 17 42 16
5 -1 6 1 3 6 -7 11 38 55 47 45 4 -3 7 -1 7 6 0 8 -6 11 -16 7 -15 -6 -15 -4
-3 10 8 10 13 19 12 21 -9 11 0 12 20 2 21 -12 21 -11 7 6 -14 17 -13 18 2 12
12 -4 15 -2 11 8 -3 8 -8 13 -12 10 -4 -2 -8 2 -8 10 0 12 4 12 20 -2 19 -18
20 -17 8 5 -12 22 -11 23 11 17 23 -7 23 -7 3 9 -17 13 -18 15 -3 16 12 0 16
6 13 21 -3 12 -2 19 2 15 3 -3 13 0 21 6 19 16 49 21 33 5 -6 -6 -11 -15 -11
-21 0 -6 5 -5 12 2 15 15 28 16 28 2 0 -6 -10 -15 -22 -20 -19 -7 -20 -9 -5
-9 19 -1 19 -26 -1 -26 -5 0 -14 -4 -19 -8 -4 -5 -1 -7 7 -5 8 2 14 -3 12 -10
-1 -8 2 -11 8 -7 6 3 7 11 4 17 -5 7 -2 8 6 3 8 -5 11 -4 6 3 -3 6 -2 13 3 16
10 7 9 -20 -2 -30 -4 -4 -7 -14 -7 -23 0 -14 2 -14 10 -1 7 11 8 8 6 -13 -1
-15 -5 -30 -9 -33 -9 -9 11 -55 31 -71 16 -12 16 -13 0 -7 -11 4 -18 1 -18 -6
0 -6 -4 -9 -9 -6 -10 7 -9 -13 1 -29 3 -6 5 -27 4 -47 -2 -21 1 -35 5 -32 13
8 23 -18 21 -54 -2 -21 1 -31 8 -27 6 3 7 0 4 -9 -3 -9 -12 -12 -22 -8 -14 5
-15 4 -2 -10 14 -15 17 -15 35 0 17 14 16 13 -2 -8 -12 -14 -23 -27 -25 -30
-4 -8 26 -39 34 -34 7 4 5 -6 -7 -43 -4 -13 -11 -21 -14 -18 -4 2 -8 -2 -8
-10 0 -8 3 -12 7 -10 3 2 12 0 20 -6 12 -7 11 -9 -5 -9 -16 0 -17 -2 -5 -9 8
-6 18 -7 22 -5 4 3 8 0 8 -6 0 -7 -6 -10 -14 -7 -9 4 -13 -3 -12 -26 1 -28 26
-54 26 -27 0 6 -4 9 -8 6 -5 -3 -9 1 -9 9 0 15 16 21 18 8 8 -46 6 -51 -15
-43 -17 6 -22 4 -22 -11 0 -11 4 -15 11 -9 6 5 17 5 25 0 12 -8 12 -10 -3 -10
-10 0 -15 -5 -12 -10 4 -6 10 -8 14 -6 4 3 8 -1 8 -9 0 -8 -3 -13 -6 -11 -3 2
-12 -3 -20 -11 -12 -13 -11 -14 7 -9 11 4 23 2 27 -4 4 -6 3 -10 -2 -9 -22 4
-23 -3 -2 -20 20 -16 22 -21 10 -35 -15 -18 -23 -99 -10 -90 4 2 13 -6 20 -18
11 -20 10 -21 -3 -11 -12 10 -15 10 -15 -2 0 -8 6 -15 13 -15 7 0 16 -5 20
-12 4 -7 3 -8 -4 -4 -16 9 -16 -28 -1 -57 l12 -22 -24 20 c-20 17 -21 17 -9 2
11 -15 11 -20 1 -27 -9 -5 -10 -10 -2 -14 6 -4 11 -3 11 1 0 5 9 9 19 10 19 2
19 1 2 -16 -22 -22 -22 -93 -1 -99 13 -3 13 -2 0 7 -13 9 -13 11 1 11 14 0 16
-8 14 -41 -2 -27 2 -42 11 -46 10 -4 8 -10 -9 -25 -14 -13 -16 -18 -6 -15 12
4 15 0 11 -19 -2 -14 -9 -21 -16 -17 -6 4 -5 -1 3 -10 14 -18 26 -23 16 -8 -3
5 -1 12 4 15 5 4 8 -2 7 -11 -2 -10 -8 -18 -14 -18 -6 0 -14 -4 -19 -9 -5 -6
-2 -6 6 -1 11 6 13 4 8 -8 -3 -9 -1 -19 5 -23 6 -4 8 -3 4 4 -3 6 -1 14 6 18
7 4 10 4 6 -1 -4 -4 -3 -14 3 -21 6 -8 7 -14 0 -18 -6 -4 -8 -13 -4 -21 3 -9
-1 -15 -8 -15 -11 0 -11 -2 1 -9 8 -6 18 -7 22 -5 4 3 8 0 8 -6 0 -8 -9 -10
-24 -6 -14 3 -28 2 -31 -4 -3 -5 0 -7 8 -4 8 3 20 -3 28 -12 12 -16 12 -17 -4
-11 -9 3 -17 2 -17 -3 0 -6 7 -10 16 -10 9 0 12 -5 8 -12 -4 -6 1 -17 11 -25
11 -7 13 -13 6 -13 -7 0 -9 -5 -5 -12 4 -7 3 -8 -5 -4 -6 4 -8 12 -5 18 4 7 2
8 -5 4 -8 -6 -9 -12 -2 -20 6 -7 8 -16 4 -20 -4 -4 -1 -11 7 -16 12 -7 13 -13
4 -28 -9 -14 -9 -22 1 -35 6 -9 16 -13 20 -9 5 4 4 0 0 -8 -12 -19 -14 -50 -3
-44 4 3 9 0 9 -5 1 -6 3 -15 4 -21 1 -5 3 -15 4 -20 1 -7 7 -6 15 2 8 7 12 16
9 21 -8 14 5 7 18 -10 10 -11 10 -14 2 -9 -7 4 -13 3 -13 -2 0 -8 19 -15 82
-28 10 -2 16 1 14 9 -1 6 -1 9 1 4 3 -4 10 -4 15 -1 7 4 8 2 4 -4 -4 -7 -3
-12 3 -12 5 0 12 6 14 13 4 9 6 9 6 0 1 -7 6 -13 12 -13 5 0 7 4 4 10 -4 7 3
7 19 0 17 -6 26 -6 26 0 0 6 -5 10 -12 10 -6 0 -8 3 -4 7 4 5 14 -1 22 -11 12
-17 14 -17 14 -4 0 9 5 20 12 24 7 4 8 3 4 -4 -4 -7 -2 -12 4 -12 6 0 9 -4 6
-8 -3 -5 1 -9 9 -9 10 0 12 4 5 12 -10 12 -4 25 12 25 5 0 6 -4 3 -10 -3 -5
-1 -10 4 -10 6 0 11 6 11 13 0 9 2 9 8 -1 7 -10 15 -10 37 -2 16 6 52 11 82
11 37 1 51 5 46 13 -4 6 1 5 10 -3 9 -7 17 -10 17 -5 0 5 5 2 10 -6 6 -9 10
-10 10 -3 0 6 9 10 20 8 12 -2 18 0 15 6 -4 5 -11 7 -16 4 -5 -4 -9 -1 -9 4 0
14 6 14 31 1 14 -8 19 -7 19 1 0 7 3 9 7 6 3 -4 13 -2 20 5 11 9 17 9 25 -3 7
-11 11 -11 15 -1 2 6 11 12 19 12 8 0 14 5 14 12 0 6 3 8 6 5 4 -4 2 -13 -5
-20 -9 -12 -6 -13 15 -9 19 3 22 7 12 13 -11 7 -10 11 2 19 13 8 12 10 -3 10
-10 0 -15 5 -12 10 4 6 11 7 17 4 7 -5 9 -1 5 9 -4 10 -2 17 4 17 7 0 9 10 5
25 -4 15 -2 25 4 25 6 0 9 -4 6 -8 -2 -4 0 -14 6 -22 8 -12 9 -12 4 3 -3 9 -1
17 5 17 5 0 4 6 -3 14 -7 7 -17 13 -23 11 -5 -1 -7 0 -2 2 4 3 5 9 2 14 -4 5
1 6 10 3 11 -5 14 -2 8 12 -5 13 -3 15 8 9 11 -6 11 -5 2 5 -12 13 -6 43 7 35
5 -3 12 0 16 6 4 7 3 9 -3 6 -7 -4 -11 2 -10 16 0 12 -3 29 -7 38 -4 10 -2 18
7 22 7 3 14 -1 14 -9 0 -7 -5 -10 -10 -7 -6 4 -7 1 -3 -6 8 -12 21 -7 21 7 0
4 4 13 9 21 6 10 5 12 -2 7 -7 -4 -12 -2 -12 4 0 6 -5 8 -11 4 -6 -3 -4 5 5
18 9 14 13 28 9 33 -5 4 -2 5 4 1 9 -5 12 1 9 24 -2 17 0 33 5 36 5 3 7 22 5
42 -2 20 -2 31 1 24 4 -10 8 -10 21 0 13 11 12 8 -2 -14 -14 -21 -14 -28 -4
-34 7 -4 10 -4 6 1 -4 4 -2 17 4 29 7 11 11 32 9 45 -2 13 1 21 7 17 6 -4 8 3
4 16 -4 16 -2 19 8 13 8 -5 11 -4 6 3 -4 6 -12 10 -19 8 -7 -1 -9 -1 -4 1 4 3
4 10 1 15 -5 7 -2 8 6 3 9 -5 10 -2 5 14 -4 13 -2 21 5 21 6 0 9 -3 7 -7 -3
-5 -1 -17 3 -28 5 -12 7 4 5 38 -3 53 -2 57 12 45 15 -11 15 -11 5 7 -9 17 -7
22 11 33 12 7 15 11 6 9 -13 -4 -16 2 -15 33 0 21 4 36 8 34 4 -2 5 -13 3 -24
-2 -11 0 -20 6 -20 13 0 3 51 -13 62 -9 6 -6 7 8 3 14 -4 24 0 27 9 4 10 1 13
-9 9 -7 -3 -14 0 -14 6 0 6 6 11 14 11 8 0 13 8 12 18 0 9 4 16 11 15 7 -2 10
4 6 13 -5 13 -7 13 -14 2 -6 -9 -9 -9 -9 -1 0 11 18 28 32 28 3 0 10 3 13 7 4
4 -5 5 -21 2 -20 -3 -25 -1 -15 5 8 5 10 14 6 22 -6 11 -5 12 6 1 14 -13 30
-16 28 -4 -1 4 0 9 1 12 7 18 7 39 0 35 -5 -3 -12 0 -16 6 -4 8 -3 9 4 5 7 -4
12 -2 12 5 0 8 5 7 17 -2 15 -13 15 -11 -1 13 -10 16 -13 29 -7 32 5 4 8 16 6
27 -3 16 -1 18 8 10 9 -7 17 -7 27 1 12 8 12 9 -2 4 -10 -3 -18 -1 -18 4 0 6
6 10 13 10 8 0 7 3 -3 10 -13 8 -12 12 4 27 19 17 19 17 7 0 -12 -15 -12 -17
3 -11 14 5 17 15 13 44 -4 34 -2 37 17 33 19 -4 19 -3 5 9 -13 11 -14 15 -3
26 7 6 21 9 31 6 15 -5 16 -4 3 5 -13 9 -13 11 0 11 13 0 13 1 0 10 -10 6 -11
10 -2 10 6 0 12 9 12 21 0 11 4 18 9 14 5 -3 13 0 17 6 4 7 3 9 -3 6 -20 -13
-21 31 -1 52 10 12 22 21 25 21 4 0 -4 -11 -17 -25 -13 -14 -19 -25 -13 -25
15 0 47 51 37 59 -5 3 -10 12 -12 20 -3 12 -1 12 13 1 9 -7 15 -9 13 -4 -1 5
4 20 11 34 l14 25 -24 -20 -24 -20 18 21 c9 11 14 24 10 29 -5 4 3 2 17 -5 14
-7 22 -9 18 -5 -4 5 -3 15 4 22 7 9 8 17 2 21 -14 11 -15 29 0 41 9 8 13 7 13
-4 0 -8 -5 -11 -10 -8 -6 4 -7 1 -3 -6 14 -22 22 -5 25 46 1 26 1 26 24 7 l22
-19 -22 26 c-17 19 -20 28 -11 37 8 8 8 16 -3 29 -13 17 -13 17 7 0 21 -17 21
-17 18 8 -1 16 3 28 12 32 8 3 14 14 14 25 0 12 4 16 11 12 7 -4 10 -1 7 7 -3
8 -11 13 -17 11 -7 -1 -10 2 -6 7 3 6 13 8 23 5 15 -5 15 -4 -1 9 -16 13 -16
15 -1 21 23 9 31 7 14 -4 -8 -5 -10 -10 -4 -10 6 0 18 8 25 17 8 9 9 14 4 11
-6 -4 -17 -3 -25 3 -10 6 -11 9 -2 9 6 0 12 5 12 11 0 6 -7 8 -17 4 -15 -5
-16 -4 -5 7 10 10 17 10 35 -1 20 -13 21 -13 8 2 -7 10 -10 17 -6 17 4 0 1 8
-6 17 -12 14 -12 16 0 8 11 -6 13 -4 8 8 -3 10 -2 17 4 17 6 0 7 5 4 10 -4 6
-11 7 -17 4 -6 -4 -4 3 5 15 8 13 13 31 10 40 -4 11 -1 10 10 -4 15 -18 15
-21 0 -32 -9 -7 -12 -13 -6 -13 16 0 36 27 25 34 -16 10 -8 100 11 129 12 18
14 28 5 33 -6 4 -8 3 -5 -3 4 -6 -1 -17 -10 -24 -15 -12 -16 -12 -10 4 4 11
10 30 13 43 3 13 11 24 17 24 6 0 7 3 3 7 -4 4 -16 -3 -27 -17 -15 -18 -18
-19 -11 -5 5 11 7 26 5 33 -3 7 2 24 11 37 15 23 15 24 -1 18 -16 -6 -16 -5
-4 10 7 9 10 17 5 17 -4 0 -3 5 4 12 7 7 12 16 12 22 0 5 -6 1 -14 -9 -8 -11
-12 -24 -9 -29 4 -5 1 -6 -5 -2 -8 5 -8 13 0 31 9 19 7 30 -7 52 l-18 28 23
-20 23 -20 -11 21 c-6 12 -8 25 -4 29 4 5 2 5 -4 2 -7 -4 -18 1 -25 11 -13 15
-12 16 4 3 15 -12 17 -11 17 3 0 9 -6 16 -12 16 -9 0 -8 4 2 11 11 8 12 12 3
16 -7 2 -13 9 -13 14 0 6 4 8 9 5 5 -4 8 2 7 11 -2 10 1 21 6 24 5 3 2 9 -7
12 -9 4 -14 3 -11 -1 3 -5 -2 -9 -10 -9 -10 0 -11 4 -4 11 5 5 10 16 10 24 0
12 -3 12 -17 1 -16 -12 -17 -12 -7 1 6 8 10 25 8 37 -2 12 1 25 6 28 6 4 8 11
5 16 -4 5 0 9 7 9 8 0 6 5 -4 11 -11 6 -18 22 -18 39 0 17 -5 30 -11 30 -6 0
-3 8 8 18 10 9 14 14 9 10 -21 -16 -28 -7 -10 13 10 11 14 20 9 19 -22 -5 -27
1 -15 16 11 12 10 18 -3 32 -11 10 -17 12 -17 4 0 -7 5 -12 10 -12 6 0 10 -5
10 -11 0 -15 -18 -2 -31 23 -8 15 -8 19 0 14 6 -4 11 -2 11 5 0 8 5 7 17 -2
15 -13 15 -12 3 8 -11 17 -17 19 -27 11 -8 -6 -16 -8 -20 -4 -3 3 -1 6 6 6 7
0 10 10 7 25 -3 14 -1 23 4 20 5 -3 12 0 16 6 4 8 3 9 -4 5 -7 -4 -12 -2 -12
5 0 8 -5 7 -17 -2 -16 -12 -16 -12 -6 1 11 14 13 19 13 38 0 4 7 -1 15 -12 13
-18 14 -18 12 2 0 11 -4 20 -7 20 -19 -2 -26 5 -27 30 -2 25 -1 26 7 5 5 -13
12 -23 14 -23 3 0 2 10 -3 23 -4 12 -6 29 -3 37 4 12 3 13 -10 3 -12 -10 -15
-10 -15 2 0 7 5 13 10 12 5 -1 11 10 14 26 2 15 0 27 -5 27 -11 0 -9 37 3 47
4 5 5 2 1 -4 -5 -9 -2 -11 9 -6 9 3 13 9 8 12 -13 9 -10 31 7 42 13 9 12 10
-2 5 -13 -4 -18 0 -18 14 0 11 6 19 13 18 7 -2 11 5 9 16 -2 10 1 15 7 11 7
-4 8 0 4 11 -4 11 -8 13 -11 6 -2 -7 -8 -12 -14 -12 -6 0 -8 7 -4 15 4 11 -1
15 -19 15 -14 0 -25 6 -25 13 0 7 -3 8 -8 2 -10 -15 -71 -14 -65 1 2 7 -1 15
-6 19 -6 3 -9 11 -5 16 3 5 0 16 -6 24 -10 12 -9 15 3 15 10 0 14 -8 13 -25
-2 -13 1 -22 5 -19 10 6 7 40 -4 50 -12 12 -8 26 6 18 7 -5 7 -1 -3 12 -22 29
-24 30 -17 12 3 -9 -1 -22 -11 -30 -13 -11 -14 -11 -7 1 11 19 13 61 3 55 -4
-3 -8 -13 -8 -22 0 -14 -2 -15 -9 -2 -6 8 -7 18 -5 22 3 4 0 8 -6 8 -7 0 -9
-7 -6 -16z m-991 -169 c4 -8 3 -16 -1 -19 -4 -3 -9 4 -9 15 -2 23 3 25 10 4z
m-92 -42 c13 -16 12 -17 -3 -4 -10 7 -18 15 -18 17 0 8 8 3 21 -13z m-61 -13
c-6 -11 -13 -20 -16 -20 -2 0 0 9 6 20 6 11 13 20 16 20 2 0 0 -9 -6 -20z
m130 10 c0 -5 -2 -10 -4 -10 -3 0 -8 5 -11 10 -3 6 -1 10 4 10 6 0 11 -4 11
-10z m-110 -40 c0 -5 -4 -10 -10 -10 -5 0 -10 5 -10 10 0 6 5 10 10 10 6 0 10
-4 10 -10z m1295 -28 c-3 -3 -11 0 -18 7 -9 10 -8 11 6 5 10 -3 15 -9 12 -12z
m29 -422 c-6 -5 -24 21 -24 34 0 6 6 1 14 -10 8 -10 12 -21 10 -24z m23 -125
c0 -8 -4 -12 -9 -9 -5 3 -6 10 -3 15 9 13 12 11 12 -6z m23 -139 c0 -2 -7 -7
-16 -10 -8 -3 -12 -2 -9 4 6 10 25 14 25 6z m-2276 -54 c3 -5 -1 -9 -9 -9 -8
0 -12 4 -9 9 3 4 7 8 9 8 2 0 6 -4 9 -8z m-202 -164 c-8 -8 -9 -4 -5 13 4 13
8 18 11 10 2 -7 -1 -18 -6 -23z m62 -62 c-2 -16 0 -16 15 -2 16 15 18 14 17
-6 -1 -14 4 -22 13 -20 7 1 19 -2 25 -8 7 -5 15 -8 18 -5 2 3 5 -2 5 -10 0
-13 -4 -12 -21 2 -15 14 -18 14 -8 2 6 -9 9 -18 6 -22 -3 -3 1 -4 10 -3 8 1
19 5 22 9 11 10 24 8 24 -4 0 -5 -4 -7 -10 -4 -5 3 -10 2 -10 -3 0 -4 15 -15
33 -23 17 -8 33 -20 33 -26 1 -7 2 -17 3 -23 0 -5 6 -10 12 -10 5 0 8 4 4 9
-3 5 -1 12 4 16 6 3 8 -5 5 -19 -5 -27 10 -44 22 -25 5 8 3 9 -6 4 -8 -5 -11
-4 -6 3 4 6 14 8 22 5 13 -5 13 -8 2 -15 -10 -7 -10 -11 0 -15 6 -2 12 -11 12
-19 0 -9 5 -12 10 -9 6 4 7 11 4 17 -4 7 -2 8 5 4 6 -4 9 -11 6 -16 -5 -9 24
-24 40 -21 6 1 2 -5 -8 -13 -18 -14 -18 -14 2 -21 12 -3 22 -11 22 -16 1 -5 2
-13 3 -18 0 -5 4 -13 8 -17 4 -3 5 4 3 17 -3 13 -12 30 -22 37 -9 6 -13 12 -7
12 15 0 30 -14 37 -33 4 -10 11 -16 16 -12 5 3 12 1 15 -4 4 -5 1 -13 -5 -17
-8 -5 -9 -3 -4 6 5 9 4 11 -4 6 -8 -5 -5 -15 11 -35 21 -25 24 -26 36 -12 11
14 12 12 7 -14 -6 -26 -5 -28 7 -13 10 13 17 15 28 7 13 -9 12 -10 -3 -5 -11
3 -16 2 -12 -4 3 -6 13 -10 21 -10 9 0 12 -5 8 -11 -4 -7 -1 -10 7 -7 8 3 13
11 11 17 -1 7 2 10 7 7 10 -7 9 -25 -2 -43 -5 -8 -1 -11 13 -8 13 2 20 -1 20
-11 0 -8 -4 -12 -10 -9 -5 3 -10 1 -10 -4 0 -14 6 -14 32 0 15 8 19 8 14 0 -4
-6 -2 -11 3 -11 6 0 11 -4 11 -9 0 -5 -10 -7 -22 -5 -21 4 -21 4 -3 -4 11 -5
32 -8 48 -7 22 2 25 0 16 -11 -6 -7 -16 -11 -24 -8 -7 3 -16 0 -20 -6 -3 -6
-3 -10 2 -9 20 3 43 -2 43 -10 0 -5 -10 -7 -22 -4 -22 5 -22 5 -5 -9 18 -13
18 -15 1 -29 -11 -8 -15 -9 -10 -1 4 7 2 12 -5 12 -6 0 -9 -8 -7 -18 3 -11 0
-19 -8 -19 -7 0 -11 4 -9 8 3 4 -2 9 -9 12 -10 4 -13 0 -11 -14 2 -11 0 -17
-6 -14 -5 4 -9 0 -10 -7 0 -7 -5 -3 -12 10 -7 15 -17 22 -28 19 -10 -3 -18 -2
-17 2 2 17 -3 34 -8 28 -3 -3 -16 3 -27 14 -16 14 -23 16 -29 7 -11 -17 -10
-5 1 25 8 22 7 24 -15 21 -13 -1 -26 2 -30 7 -3 5 -9 7 -13 4 -5 -2 -7 7 -5
21 2 19 -1 24 -12 20 -8 -3 -14 -1 -14 4 0 6 5 10 12 10 6 0 9 2 6 5 -10 10
-38 -7 -31 -19 3 -6 2 -7 -3 -3 -5 5 -10 13 -10 18 -1 5 -2 12 -3 15 0 4 -9 0
-18 -7 -16 -13 -17 -12 -4 4 9 12 17 14 26 7 8 -7 12 -5 12 5 0 8 -3 13 -5 10
-3 -3 -18 7 -34 22 -25 24 -31 26 -48 15 -11 -7 -20 -8 -20 -3 0 5 8 12 18 16
16 6 16 7 -1 16 -9 6 -15 14 -13 18 3 4 -1 8 -9 8 -8 0 -12 -4 -10 -8 7 -10
-22 -5 -32 6 -4 4 -2 5 5 1 7 -4 12 -1 12 9 0 11 -7 14 -23 11 -20 -3 -23 0
-22 30 1 18 -2 31 -6 28 -4 -2 -11 1 -14 7 -4 6 -19 8 -34 5 -20 -5 -23 -4
-11 4 11 9 12 13 2 17 -6 2 -9 10 -5 16 4 8 1 7 -9 -1 -13 -10 -17 -10 -22 4
-3 9 -4 19 -1 23 2 4 -2 8 -9 8 -8 0 -12 -7 -9 -16 4 -14 4 -14 -6 -1 -15 21
-14 43 2 34 7 -4 9 -3 4 2 -9 9 -13 10 -43 13 -11 1 -15 7 -11 21 3 11 1 23
-4 26 -5 3 -6 10 -3 16 5 7 2 8 -6 3 -8 -5 -11 -4 -6 3 3 5 1 12 -6 14 -7 3
-5 7 6 11 10 4 15 3 11 -3 -3 -6 1 -10 10 -10 13 0 14 4 4 23 l-12 22 23 -20
23 -20 -13 24 c-7 15 -8 21 -1 17 6 -4 11 -3 11 3 0 5 8 8 18 6 9 -1 16 -10
16 -19z m66 -10 c0 -2 -7 -7 -16 -10 -8 -3 -12 -2 -9 4 6 10 25 14 25 6z
m-147 -79 c-5 -8 -8 -7 -11 1 -2 7 -9 9 -14 6 -7 -4 -8 -2 -4 4 4 6 13 9 21 6
8 -4 12 -11 8 -17z m-96 -2 c0 -8 -4 -12 -9 -9 -4 3 -8 9 -8 15 0 5 4 9 8 9 5
0 9 -7 9 -15z m53 -31 c0 -8 -19 -13 -24 -6 -3 5 1 9 9 9 8 0 15 -2 15 -3z
m208 -135 c-3 -8 -7 -3 -11 10 -4 17 -3 21 5 13 5 -5 8 -16 6 -23z m322 -91
c0 -6 -6 -5 -15 2 -8 7 -15 14 -15 16 0 2 7 1 15 -2 8 -4 15 -11 15 -16z
m-220 8 c0 -2 -9 -6 -20 -9 -11 -3 -18 -1 -14 4 5 9 34 13 34 5z m55 -46 c17
-18 17 -20 2 -14 -9 3 -17 10 -17 16 0 5 -5 6 -12 2 -7 -4 -8 -3 -4 4 9 16 10
15 31 -8z m16 -103 c-10 -9 -11 -8 -5 6 3 10 9 15 12 12 3 -3 0 -11 -7 -18z
m131 -129 c-8 -8 -9 -4 -5 13 4 13 8 18 11 10 2 -7 -1 -18 -6 -23z m29 -1
c-10 -9 -11 -8 -5 6 3 10 9 15 12 12 3 -3 0 -11 -7 -18z m181 -29 c-8 -10 -20
-18 -26 -17 -6 0 -6 3 2 6 6 2 10 9 6 14 -3 5 0 8 8 7 8 -2 12 6 11 22 -2 22
-2 23 6 5 6 -14 4 -25 -7 -37z m223 14 c-3 -3 -11 0 -18 7 -9 10 -8 11 6 5 10
-3 15 -9 12 -12z m-278 -7 c0 -8 -4 -12 -9 -9 -5 3 -6 10 -3 15 9 13 12 11 12
-6z m-42 -35 c3 -6 -1 -7 -9 -4 -18 7 -21 14 -7 14 6 0 13 -4 16 -10z m321
-49 c0 -15 -3 -17 -13 -9 -7 6 -10 14 -7 19 9 15 20 10 20 -10z m1434 15 c0
-3 -4 -8 -10 -11 -5 -3 -10 -1 -10 4 0 6 5 11 10 11 6 0 10 -2 10 -4z m-1430
-56 c0 -5 -2 -10 -4 -10 -3 0 -8 5 -11 10 -3 6 -1 10 4 10 6 0 11 -4 11 -10z
m20 -14 c0 -2 -6 -9 -14 -15 -11 -9 -16 -9 -22 0 -4 7 -3 9 4 5 6 -3 13 -2 17
4 6 10 15 14 15 6z m15 -184 c-3 -3 -11 0 -18 7 -9 10 -8 11 6 5 10 -3 15 -9
12 -12z m1155 -296 c0 -3 -4 -8 -10 -11 -5 -3 -10 -1 -10 4 0 6 5 11 10 11 6
0 10 -2 10 -4z m-1115 -116 c-2 -11 1 -22 6 -25 5 -4 7 -11 3 -16 -10 -17 -21
0 -18 28 2 32 3 33 8 33 3 0 3 -9 1 -20z m30 -249 c3 -5 2 -12 -3 -15 -5 -3
-9 1 -9 9 0 17 3 19 12 6z m10 -31 c-3 -5 -12 -10 -18 -10 -7 0 -6 4 3 10 19
12 23 12 15 0z m60 -470 c3 -6 -1 -7 -9 -4 -18 7 -21 14 -7 14 6 0 13 -4 16
-10z m5 -54 c0 -11 -19 -15 -25 -6 -3 5 1 10 9 10 9 0 16 -2 16 -4z m550 -102
c0 -2 -9 0 -20 6 -11 6 -20 13 -20 16 0 2 9 0 20 -6 11 -6 20 -13 20 -16z"/>
<path d="M615 2900 c-3 -5 -1 -10 4 -10 6 0 11 5 11 10 0 6 -2 10 -4 10 -3 0
-8 -4 -11 -10z"/>
<path d="M647 2885 c3 -8 9 -12 14 -9 12 7 11 11 -5 17 -10 4 -13 1 -9 -8z"/>
<path d="M844 2533 c2 -10 6 -17 10 -16 15 3 16 11 2 22 -12 10 -14 9 -12 -6z"/>
<path d="M900 2481 c0 -10 19 -25 25 -20 1 2 -3 10 -11 17 -8 7 -14 8 -14 3z"/>
<path d="M2740 4134 c0 -1 8 -8 17 -15 9 -8 14 -9 10 -2 -4 6 -1 13 5 16 7 3
3 4 -9 4 -13 -1 -23 -2 -23 -3z"/>
<path d="M3103 4133 c-17 -6 -17 -20 0 -20 8 0 14 6 14 14 0 7 -1 13 -1 12 -1
0 -7 -3 -13 -6z"/>
<path d="M3461 4124 c0 -11 3 -14 6 -6 3 7 2 16 -1 19 -3 4 -6 -2 -5 -13z"/>
<path d="M1785 4089 c-4 -6 -5 -12 -2 -15 2 -3 7 2 10 11 7 17 1 20 -8 4z"/>
<path d="M2040 4091 c0 -6 4 -13 10 -16 6 -3 7 1 4 9 -7 18 -14 21 -14 7z"/>
<path d="M3085 4070 c3 -5 1 -19 -5 -31 -18 -32 -7 -32 12 1 14 25 14 29 2 34
-8 3 -12 1 -9 -4z"/>
<path d="M3636 4053 c-8 -20 9 -40 19 -22 6 8 4 10 -5 4 -9 -5 -10 -2 -5 14 8
25 0 29 -9 4z"/>
<path d="M2399 3993 c-13 -16 -12 -17 4 -4 9 7 17 15 17 17 0 8 -8 3 -21 -13z"/>
<path d="M1616 3955 c-11 -8 -15 -15 -9 -15 6 0 16 7 23 15 16 19 11 19 -14 0z"/>
<path d="M2120 3950 c-6 -11 -8 -20 -6 -20 3 0 10 9 16 20 6 11 8 20 6 20 -3
0 -10 -9 -16 -20z"/>
<path d="M4606 3942 c-2 -4 -1 -14 3 -21 6 -9 11 -10 15 -2 4 6 2 11 -4 11 -6
0 -8 5 -5 10 3 6 4 10 1 10 -3 0 -7 -4 -10 -8z"/>
<path d="M3050 3701 c0 -5 7 -12 16 -15 14 -5 15 -4 4 9 -14 17 -20 19 -20 6z"/>
<path d="M2910 3459 c0 -5 5 -7 10 -4 6 3 10 8 10 11 0 2 -4 4 -10 4 -5 0 -10
-5 -10 -11z"/>
<path d="M822 3434 c-7 -8 -8 -14 -3 -14 10 0 25 19 20 25 -2 1 -10 -3 -17
-11z"/>
<path d="M3107 3385 c-4 -8 -3 -16 1 -19 4 -3 9 4 9 15 2 23 -3 25 -10 4z"/>
<path d="M750 3365 c-7 -9 -10 -18 -7 -21 3 -3 10 4 17 15 13 25 8 27 -10 6z"/>
<path d="M2905 3370 c-3 -6 1 -7 9 -4 18 7 21 14 7 14 -6 0 -13 -4 -16 -10z"/>
<path d="M4506 3363 c-6 -14 -5 -15 5 -6 7 7 10 15 7 18 -3 3 -9 -2 -12 -12z"/>
<path d="M480 3131 c0 -7 -4 -10 -8 -7 -5 3 -9 -2 -9 -10 0 -13 2 -13 16 0 8
9 12 19 8 22 -4 4 -7 2 -7 -5z"/>
<path d="M4321 3055 c0 -5 3 -16 8 -23 7 -11 9 -10 14 3 4 9 3 14 -2 10 -5 -3
-12 1 -14 7 -3 7 -6 9 -6 3z"/>
<path d="M2947 3013 c-10 -10 -8 -23 4 -23 5 0 8 4 5 9 -4 5 0 12 6 14 7 3 8
6 2 6 -6 1 -14 -2 -17 -6z"/>
<path d="M3141 3011 c-8 -5 -9 -11 -3 -15 5 -3 12 1 16 9 6 17 6 18 -13 6z"/>
<path d="M3135 2900 c-3 -5 -2 -10 4 -10 5 0 13 5 16 10 3 6 2 10 -4 10 -5 0
-13 -4 -16 -10z"/>
<path d="M2946 2858 c3 -5 10 -6 15 -3 13 9 11 12 -6 12 -8 0 -12 -4 -9 -9z"/>
<path d="M439 2773 c-13 -16 -12 -17 4 -4 9 7 17 15 17 17 0 8 -8 3 -21 -13z"/>
<path d="M3108 2753 c7 -3 16 -2 19 1 4 3 -2 6 -13 5 -11 0 -14 -3 -6 -6z"/>
<path d="M625 2629 c-4 -6 -5 -12 -2 -15 2 -3 7 2 10 11 7 17 1 20 -8 4z"/>
<path d="M1225 2530 c-3 -5 -2 -10 4 -10 5 0 13 5 16 10 3 6 2 10 -4 10 -5 0
-13 -4 -16 -10z"/>
<path d="M2836 2458 c3 -5 10 -6 15 -3 13 9 11 12 -6 12 -8 0 -12 -4 -9 -9z"/>
<path d="M2805 2420 c-3 -6 1 -7 9 -4 18 7 21 14 7 14 -6 0 -13 -4 -16 -10z"/>
<path d="M1285 2346 c10 -14 19 -26 22 -26 7 0 -17 39 -28 46 -6 3 -3 -5 6
-20z"/>
<path d="M4266 2241 c-3 -5 1 -14 9 -21 10 -9 15 -9 15 -1 0 6 -5 11 -11 11
-5 0 -7 5 -4 10 3 6 4 10 1 10 -3 0 -7 -4 -10 -9z"/>
<path d="M1338 1998 c4 -16 2 -19 -8 -13 -9 5 -11 4 -6 -4 6 -9 11 -9 22 0 11
9 11 15 3 25 -16 19 -18 18 -11 -8z"/>
<path d="M4323 1996 c0 -14 6 -27 14 -30 9 -4 11 -2 6 7 -4 6 -8 18 -9 25 -4
25 -11 23 -11 -2z"/>
<path d="M4356 1881 c-3 -4 1 -17 10 -27 14 -18 15 -18 5 2 -6 12 -7 24 -4 28
3 3 4 6 0 6 -3 0 -8 -4 -11 -9z"/>
<path d="M2543 1844 c4 -4 2 -13 -4 -21 -15 -17 -1 -17 16 1 12 12 12 15 -2
21 -10 3 -14 3 -10 -1z"/>
<path d="M2713 1735 c0 -8 4 -12 9 -9 4 3 8 9 8 15 0 5 -4 9 -8 9 -5 0 -9 -7
-9 -15z"/>
<path d="M1373 1674 c0 -23 1 -24 14 -11 9 8 12 20 9 26 -12 19 -23 12 -23
-15z"/>
<path d="M4398 1663 c7 -3 16 -2 19 1 4 3 -2 6 -13 5 -11 0 -14 -3 -6 -6z"/>
<path d="M4410 1550 c-9 -6 -10 -10 -3 -10 6 0 15 5 18 10 8 12 4 12 -15 0z"/>
<path d="M2650 1540 c0 -5 5 -10 11 -10 5 0 7 5 4 10 -3 6 -8 10 -11 10 -2 0
-4 -4 -4 -10z"/>
<path d="M4400 1521 c0 -6 4 -12 8 -15 5 -3 9 1 9 9 0 8 -4 15 -9 15 -4 0 -8
-4 -8 -9z"/>
<path d="M4430 1500 c0 -5 5 -10 11 -10 5 0 7 5 4 10 -3 6 -8 10 -11 10 -2 0
-4 -4 -4 -10z"/>
<path d="M1412 1297 c12 -9 14 -17 7 -24 -6 -6 -5 -10 5 -10 20 0 13 27 -10
39 -17 9 -18 8 -2 -5z"/>
<path d="M1420 1242 c0 -5 7 -9 15 -9 8 0 12 4 9 9 -3 4 -9 8 -15 8 -5 0 -9
-4 -9 -8z"/>
<path d="M2345 1181 c-3 -5 0 -13 6 -17 7 -4 9 -3 5 4 -3 6 2 13 11 15 16 4
16 5 1 6 -9 0 -19 -3 -23 -8z"/>
<path d="M2550 1180 c0 -5 5 -10 11 -10 5 0 7 5 4 10 -3 6 -8 10 -11 10 -2 0
-4 -4 -4 -10z"/>
<path d="M2540 1141 c0 -6 4 -13 10 -16 6 -3 7 1 4 9 -7 18 -14 21 -14 7z"/>
<path d="M2327 1097 c-3 -8 1 -14 8 -14 7 0 11 6 8 14 -3 7 -6 13 -8 13 -2 0
-5 -6 -8 -13z"/>
<path d="M2535 1100 c-3 -5 -1 -10 5 -10 6 0 8 -6 4 -12 -4 -7 -3 -9 1 -5 12
10 15 37 5 37 -5 0 -12 -4 -15 -10z"/>
<path d="M1455 1080 c-4 -6 -11 -8 -16 -5 -16 10 -10 -2 9 -16 9 -7 14 -9 10
-5 -4 5 -3 15 3 23 6 7 9 13 6 13 -3 0 -9 -5 -12 -10z"/>
<path d="M4455 1030 c-7 -11 22 -26 32 -16 4 3 -1 6 -11 6 -9 0 -14 5 -11 10
3 6 4 10 1 10 -3 0 -8 -5 -11 -10z"/>
<path d="M2290 946 c0 -2 7 -7 16 -10 8 -3 12 -2 9 4 -6 10 -25 14 -25 6z"/>
<path d="M2500 919 c0 -5 -5 -7 -12 -3 -7 4 -8 3 -4 -5 4 -6 3 -18 -4 -26 -7
-9 -8 -15 0 -20 5 -3 10 -5 11 -3 0 2 2 10 4 18 2 8 6 23 10 33 4 9 4 17 1 17
-3 0 -6 -5 -6 -11z"/>
<path d="M4467 869 c7 -7 15 -10 18 -7 3 3 -2 9 -12 12 -14 6 -15 5 -6 -5z"/>
<path d="M1960 700 c-9 -6 -10 -10 -3 -10 6 0 15 5 18 10 8 12 4 12 -15 0z"/>
<path d="M4475 691 c-3 -5 -2 -12 3 -15 5 -3 9 1 9 9 0 17 -3 19 -12 6z"/>
<path d="M3470 481 c0 -5 7 -11 14 -14 10 -4 13 -1 9 9 -6 15 -23 19 -23 5z"/>
<path d="M3515 470 c3 -5 8 -10 11 -10 2 0 4 5 4 10 0 6 -5 10 -11 10 -5 0 -7
-4 -4 -10z"/>
<path d="M4067 469 c7 -7 15 -10 18 -7 3 3 -2 9 -12 12 -14 6 -15 5 -6 -5z"/>
</g>
</svg>
